<svg xmlns="http://www.w3.org/2000/svg" width="21" height="20" viewBox="0 0 21 20" version="1.1">
	<path d="M 6 2.723 L 6 5.445 4.410 3.175 C 3.149 1.374, 2.528 1.147, 1.410 2.075 C 0.634 2.718, 0.014 3.977, 0.032 4.872 C 0.059 6.256, 0.279 6.215, 1.500 4.602 C 2.879 2.780, 2.978 2.812, 3.962 5.400 C 5.078 8.336, 3.058 15, 1.051 15 C 0.473 15, 0 15.436, 0 15.969 C 0 17.728, 3.034 15.811, 4.490 13.131 L 5.920 10.500 5.960 14.250 C 5.997 17.759, 5.807 18, 3 18 C 1.350 18, 0 18.450, 0 19 C 0 19.550, 1.575 20, 3.500 20 L 7 20 7 10 C 7 4.500, 6.775 0, 6.500 0 C 6.225 0, 6 1.225, 6 2.723 M 10.728 19.722 C 12.503 19.943, 15.653 19.946, 17.728 19.730 C 19.802 19.513, 18.350 19.333, 14.500 19.328 C 10.650 19.324, 8.952 19.501, 10.728 19.722 " stroke="none" fill="black" fill-rule="evenodd"/>
</svg>